<svg width="1000" height="57" viewBox="0 0 1000 57" fill="none" xmlns="http://www.w3.org/2000/svg" class="h-8 max-w-[340px] w-full"><path fill-rule="evenodd" clip-rule="evenodd" d="M203.779 28.5234V28.3648C203.779 12.4735 216.343 9.53674e-06 233.384 9.53674e-06C243.045 9.53674e-06 249.879 2.96058 255.695 7.94569L246.738 18.6233C242.808 15.3517 238.881 13.4827 233.467 13.4827C225.53 13.4827 219.407 20.1051 219.407 28.4502V28.6026C219.407 37.4082 225.61 43.7135 234.331 43.7135C238.018 43.7135 240.848 42.936 243.125 41.4603V34.8348H232.287V23.77H257.576V48.3144C251.765 53.0709 243.675 56.7357 233.698 56.7357C216.577 56.7357 203.779 45.0459 203.779 28.5234ZM153.971 1.08902H197.95V14.343H169.208V23.6181H195.203V36.1616H169.208V55.6478H153.971V1.08902ZM275.493 1.08841H258.452L280.756 56.0344H294.897L317.205 1.08841H300.471L287.98 35.6122L275.493 1.08841Z" fill="#233769"></path><path d="M0 1.07072L48.481 55.599H90.8996L42.4217 1.07072H0Z" fill="#233769"></path><path d="M103.126 33.5376L139.371 1.07186H96.9556L77.6222 18.381L103.126 33.5376Z" fill="#2A84C2"></path><path fill-rule="evenodd" clip-rule="evenodd" d="M397.421 28.2118C397.421 12.4645 409.633 0.225224 425.965 0.225224C442.297 0.225224 454.508 12.6204 454.433 28.2118C454.358 44.0371 442.222 56.5881 425.965 56.5102C409.633 56.4322 397.421 43.8032 397.421 28.2118ZM412.33 28.2118C412.33 36.5532 418.398 43.3354 425.965 43.3354C433.456 43.3354 439.525 36.6311 439.525 28.2118C439.525 19.8704 433.456 13.4779 425.965 13.4779C418.398 13.4779 412.33 19.9483 412.33 28.2118ZM971.531 0.225224C955.199 0.225224 942.987 12.4645 942.987 28.2118C942.987 43.8032 955.199 56.4322 971.531 56.5102C987.788 56.5881 999.925 44.0371 1000 28.2118C1000.07 12.6204 987.863 0.225224 971.531 0.225224ZM971.531 43.3354C963.964 43.3354 957.896 36.5532 957.896 28.2118C957.896 19.9483 963.964 13.4779 971.531 13.4779C979.023 13.4779 985.091 19.8704 985.091 28.2118C985.091 36.6311 979.023 43.3354 971.531 43.3354ZM895.112 1.08103V13.4762H910.77V55.6509H925.679V13.4762H941.411V1.08103H895.112ZM837.91 1.08103H852.969L873.646 30.7827V1.08103H888.555V55.6509H873.421L852.819 25.8714V55.6509H837.91V1.08103ZM829.242 1.08103H787.064V55.6509H829.242V43.4117H801.972V34.2907H825.496V22.4412H801.972V13.3203H829.242V1.08103ZM716.315 55.6509V1.08103H731.374L746.507 24.624L761.79 1.08103H776.849V55.6509H761.94V25.8714L746.507 50.2719L731.224 25.9493V55.6509H716.315ZM705.701 55.6509V1.08103H690.793V55.6509H705.701ZM660.155 56.4338C644.497 56.4338 631.611 45.7537 631.611 28.5252C631.611 11.5306 644.647 0.460694 660.155 0.382733C671.317 0.382733 679.184 5.68381 683.004 11.4526L673.04 19.0924C670.868 16.0521 667.347 12.8559 660.904 12.8559C653.187 12.8559 646.52 19.0145 646.52 28.5252C646.52 37.958 653.037 43.8827 660.829 43.8827C668.395 43.8827 671.617 40.2188 673.34 37.4903L682.929 44.4284C680.158 49.4956 672.666 56.4338 660.155 56.4338ZM626.437 1.08103H584.259V55.6509H626.437V43.4117H599.167V34.2907H622.691V22.4412H599.167V13.3203H626.437V1.08103ZM523.098 1.08103H537.931V22.2074H559.058V1.08103H573.967V55.6509H559.058V34.6025H538.006V55.6509H523.098V1.08103ZM477.283 1.08103H462.225V55.6509H477.133V25.8714L497.735 55.6509H512.869V1.08103H497.96V30.7827L477.283 1.08103ZM344.086 28.5252C344.086 45.7537 356.972 56.4338 372.63 56.4338C385.141 56.4338 392.633 49.4956 395.405 44.4284L385.815 37.4903C384.092 40.2188 380.871 43.8827 373.304 43.8827C365.513 43.8827 358.995 37.958 358.995 28.5252C358.995 19.0145 365.662 12.8559 373.379 12.8559C379.822 12.8559 383.343 16.0521 385.515 19.0924L395.48 11.4526C391.659 5.68381 383.792 0.382733 372.63 0.382733C357.122 0.460694 344.086 11.5306 344.086 28.5252Z" fill="#2A84C2"></path></svg>